<?xml version="1.0" encoding="utf-8"?>
<svg width="203" height="203" viewBox="0 0 203 203"
		 xmlns="http://www.w3.org/2000/svg" xmlns:xlink="http://www.w3.org/1999/xlink" xmlns:ev="http://www.w3.org/2001/xml-events">
<rect x="0" y="0" width="203" height="203" fill="#ffffff"/>
<defs>
<rect id="p" width="7" height="7"/>
</defs>
<g fill="#000000">
<use xlink:href="#p" x="14" y="14"/>
<use xlink:href="#p" x="14" y="21"/>
<use xlink:href="#p" x="14" y="28"/>
<use xlink:href="#p" x="14" y="35"/>
<use xlink:href="#p" x="14" y="42"/>
<use xlink:href="#p" x="14" y="49"/>
<use xlink:href="#p" x="14" y="56"/>
<use xlink:href="#p" x="14" y="70"/>
<use xlink:href="#p" x="14" y="91"/>
<use xlink:href="#p" x="14" y="98"/>
<use xlink:href="#p" x="14" y="140"/>
<use xlink:href="#p" x="14" y="147"/>
<use xlink:href="#p" x="14" y="154"/>
<use xlink:href="#p" x="14" y="161"/>
<use xlink:href="#p" x="14" y="168"/>
<use xlink:href="#p" x="14" y="175"/>
<use xlink:href="#p" x="14" y="182"/>
<use xlink:href="#p" x="21" y="14"/>
<use xlink:href="#p" x="21" y="56"/>
<use xlink:href="#p" x="21" y="70"/>
<use xlink:href="#p" x="21" y="91"/>
<use xlink:href="#p" x="21" y="105"/>
<use xlink:href="#p" x="21" y="112"/>
<use xlink:href="#p" x="21" y="119"/>
<use xlink:href="#p" x="21" y="126"/>
<use xlink:href="#p" x="21" y="140"/>
<use xlink:href="#p" x="21" y="182"/>
<use xlink:href="#p" x="28" y="14"/>
<use xlink:href="#p" x="28" y="28"/>
<use xlink:href="#p" x="28" y="35"/>
<use xlink:href="#p" x="28" y="42"/>
<use xlink:href="#p" x="28" y="56"/>
<use xlink:href="#p" x="28" y="70"/>
<use xlink:href="#p" x="28" y="77"/>
<use xlink:href="#p" x="28" y="84"/>
<use xlink:href="#p" x="28" y="91"/>
<use xlink:href="#p" x="28" y="98"/>
<use xlink:href="#p" x="28" y="112"/>
<use xlink:href="#p" x="28" y="126"/>
<use xlink:href="#p" x="28" y="140"/>
<use xlink:href="#p" x="28" y="154"/>
<use xlink:href="#p" x="28" y="161"/>
<use xlink:href="#p" x="28" y="168"/>
<use xlink:href="#p" x="28" y="182"/>
<use xlink:href="#p" x="35" y="14"/>
<use xlink:href="#p" x="35" y="28"/>
<use xlink:href="#p" x="35" y="35"/>
<use xlink:href="#p" x="35" y="42"/>
<use xlink:href="#p" x="35" y="56"/>
<use xlink:href="#p" x="35" y="70"/>
<use xlink:href="#p" x="35" y="77"/>
<use xlink:href="#p" x="35" y="84"/>
<use xlink:href="#p" x="35" y="91"/>
<use xlink:href="#p" x="35" y="98"/>
<use xlink:href="#p" x="35" y="105"/>
<use xlink:href="#p" x="35" y="112"/>
<use xlink:href="#p" x="35" y="119"/>
<use xlink:href="#p" x="35" y="126"/>
<use xlink:href="#p" x="35" y="140"/>
<use xlink:href="#p" x="35" y="154"/>
<use xlink:href="#p" x="35" y="161"/>
<use xlink:href="#p" x="35" y="168"/>
<use xlink:href="#p" x="35" y="182"/>
<use xlink:href="#p" x="42" y="14"/>
<use xlink:href="#p" x="42" y="28"/>
<use xlink:href="#p" x="42" y="35"/>
<use xlink:href="#p" x="42" y="42"/>
<use xlink:href="#p" x="42" y="56"/>
<use xlink:href="#p" x="42" y="70"/>
<use xlink:href="#p" x="42" y="77"/>
<use xlink:href="#p" x="42" y="91"/>
<use xlink:href="#p" x="42" y="98"/>
<use xlink:href="#p" x="42" y="119"/>
<use xlink:href="#p" x="42" y="126"/>
<use xlink:href="#p" x="42" y="140"/>
<use xlink:href="#p" x="42" y="154"/>
<use xlink:href="#p" x="42" y="161"/>
<use xlink:href="#p" x="42" y="168"/>
<use xlink:href="#p" x="42" y="182"/>
<use xlink:href="#p" x="49" y="14"/>
<use xlink:href="#p" x="49" y="56"/>
<use xlink:href="#p" x="49" y="77"/>
<use xlink:href="#p" x="49" y="105"/>
<use xlink:href="#p" x="49" y="112"/>
<use xlink:href="#p" x="49" y="140"/>
<use xlink:href="#p" x="49" y="182"/>
<use xlink:href="#p" x="56" y="14"/>
<use xlink:href="#p" x="56" y="21"/>
<use xlink:href="#p" x="56" y="28"/>
<use xlink:href="#p" x="56" y="35"/>
<use xlink:href="#p" x="56" y="42"/>
<use xlink:href="#p" x="56" y="49"/>
<use xlink:href="#p" x="56" y="56"/>
<use xlink:href="#p" x="56" y="70"/>
<use xlink:href="#p" x="56" y="84"/>
<use xlink:href="#p" x="56" y="98"/>
<use xlink:href="#p" x="56" y="112"/>
<use xlink:href="#p" x="56" y="126"/>
<use xlink:href="#p" x="56" y="140"/>
<use xlink:href="#p" x="56" y="147"/>
<use xlink:href="#p" x="56" y="154"/>
<use xlink:href="#p" x="56" y="161"/>
<use xlink:href="#p" x="56" y="168"/>
<use xlink:href="#p" x="56" y="175"/>
<use xlink:href="#p" x="56" y="182"/>
<use xlink:href="#p" x="63" y="70"/>
<use xlink:href="#p" x="63" y="77"/>
<use xlink:href="#p" x="63" y="84"/>
<use xlink:href="#p" x="63" y="112"/>
<use xlink:href="#p" x="63" y="126"/>
<use xlink:href="#p" x="70" y="21"/>
<use xlink:href="#p" x="70" y="35"/>
<use xlink:href="#p" x="70" y="49"/>
<use xlink:href="#p" x="70" y="56"/>
<use xlink:href="#p" x="70" y="70"/>
<use xlink:href="#p" x="70" y="84"/>
<use xlink:href="#p" x="70" y="91"/>
<use xlink:href="#p" x="70" y="112"/>
<use xlink:href="#p" x="70" y="126"/>
<use xlink:href="#p" x="70" y="133"/>
<use xlink:href="#p" x="70" y="140"/>
<use xlink:href="#p" x="70" y="154"/>
<use xlink:href="#p" x="70" y="161"/>
<use xlink:href="#p" x="70" y="168"/>
<use xlink:href="#p" x="70" y="175"/>
<use xlink:href="#p" x="70" y="182"/>
<use xlink:href="#p" x="77" y="35"/>
<use xlink:href="#p" x="77" y="42"/>
<use xlink:href="#p" x="77" y="49"/>
<use xlink:href="#p" x="77" y="63"/>
<use xlink:href="#p" x="77" y="70"/>
<use xlink:href="#p" x="77" y="98"/>
<use xlink:href="#p" x="77" y="105"/>
<use xlink:href="#p" x="77" y="119"/>
<use xlink:href="#p" x="77" y="126"/>
<use xlink:href="#p" x="77" y="133"/>
<use xlink:href="#p" x="77" y="140"/>
<use xlink:href="#p" x="77" y="147"/>
<use xlink:href="#p" x="77" y="154"/>
<use xlink:href="#p" x="77" y="168"/>
<use xlink:href="#p" x="77" y="175"/>
<use xlink:href="#p" x="84" y="14"/>
<use xlink:href="#p" x="84" y="21"/>
<use xlink:href="#p" x="84" y="35"/>
<use xlink:href="#p" x="84" y="56"/>
<use xlink:href="#p" x="84" y="63"/>
<use xlink:href="#p" x="84" y="77"/>
<use xlink:href="#p" x="84" y="84"/>
<use xlink:href="#p" x="84" y="98"/>
<use xlink:href="#p" x="84" y="112"/>
<use xlink:href="#p" x="84" y="119"/>
<use xlink:href="#p" x="84" y="126"/>
<use xlink:href="#p" x="84" y="133"/>
<use xlink:href="#p" x="84" y="147"/>
<use xlink:href="#p" x="84" y="154"/>
<use xlink:href="#p" x="84" y="168"/>
<use xlink:href="#p" x="84" y="175"/>
<use xlink:href="#p" x="84" y="182"/>
<use xlink:href="#p" x="91" y="49"/>
<use xlink:href="#p" x="91" y="63"/>
<use xlink:href="#p" x="91" y="70"/>
<use xlink:href="#p" x="91" y="112"/>
<use xlink:href="#p" x="91" y="119"/>
<use xlink:href="#p" x="91" y="126"/>
<use xlink:href="#p" x="91" y="168"/>
<use xlink:href="#p" x="91" y="175"/>
<use xlink:href="#p" x="91" y="182"/>
<use xlink:href="#p" x="98" y="14"/>
<use xlink:href="#p" x="98" y="28"/>
<use xlink:href="#p" x="98" y="35"/>
<use xlink:href="#p" x="98" y="49"/>
<use xlink:href="#p" x="98" y="56"/>
<use xlink:href="#p" x="98" y="77"/>
<use xlink:href="#p" x="98" y="91"/>
<use xlink:href="#p" x="98" y="98"/>
<use xlink:href="#p" x="98" y="112"/>
<use xlink:href="#p" x="98" y="133"/>
<use xlink:href="#p" x="98" y="147"/>
<use xlink:href="#p" x="98" y="154"/>
<use xlink:href="#p" x="98" y="168"/>
<use xlink:href="#p" x="105" y="14"/>
<use xlink:href="#p" x="105" y="21"/>
<use xlink:href="#p" x="105" y="35"/>
<use xlink:href="#p" x="105" y="42"/>
<use xlink:href="#p" x="105" y="70"/>
<use xlink:href="#p" x="105" y="84"/>
<use xlink:href="#p" x="105" y="98"/>
<use xlink:href="#p" x="105" y="112"/>
<use xlink:href="#p" x="105" y="133"/>
<use xlink:href="#p" x="105" y="140"/>
<use xlink:href="#p" x="105" y="147"/>
<use xlink:href="#p" x="112" y="28"/>
<use xlink:href="#p" x="112" y="35"/>
<use xlink:href="#p" x="112" y="49"/>
<use xlink:href="#p" x="112" y="56"/>
<use xlink:href="#p" x="112" y="70"/>
<use xlink:href="#p" x="112" y="77"/>
<use xlink:href="#p" x="112" y="84"/>
<use xlink:href="#p" x="112" y="105"/>
<use xlink:href="#p" x="112" y="119"/>
<use xlink:href="#p" x="112" y="140"/>
<use xlink:href="#p" x="112" y="154"/>
<use xlink:href="#p" x="112" y="175"/>
<use xlink:href="#p" x="119" y="21"/>
<use xlink:href="#p" x="119" y="28"/>
<use xlink:href="#p" x="119" y="49"/>
<use xlink:href="#p" x="119" y="63"/>
<use xlink:href="#p" x="119" y="70"/>
<use xlink:href="#p" x="119" y="84"/>
<use xlink:href="#p" x="119" y="112"/>
<use xlink:href="#p" x="119" y="119"/>
<use xlink:href="#p" x="119" y="154"/>
<use xlink:href="#p" x="119" y="161"/>
<use xlink:href="#p" x="119" y="168"/>
<use xlink:href="#p" x="119" y="175"/>
<use xlink:href="#p" x="126" y="14"/>
<use xlink:href="#p" x="126" y="21"/>
<use xlink:href="#p" x="126" y="42"/>
<use xlink:href="#p" x="126" y="49"/>
<use xlink:href="#p" x="126" y="56"/>
<use xlink:href="#p" x="126" y="63"/>
<use xlink:href="#p" x="126" y="70"/>
<use xlink:href="#p" x="126" y="77"/>
<use xlink:href="#p" x="126" y="84"/>
<use xlink:href="#p" x="126" y="91"/>
<use xlink:href="#p" x="126" y="112"/>
<use xlink:href="#p" x="126" y="126"/>
<use xlink:href="#p" x="126" y="133"/>
<use xlink:href="#p" x="126" y="140"/>
<use xlink:href="#p" x="126" y="147"/>
<use xlink:href="#p" x="126" y="154"/>
<use xlink:href="#p" x="126" y="161"/>
<use xlink:href="#p" x="126" y="175"/>
<use xlink:href="#p" x="133" y="70"/>
<use xlink:href="#p" x="133" y="77"/>
<use xlink:href="#p" x="133" y="98"/>
<use xlink:href="#p" x="133" y="112"/>
<use xlink:href="#p" x="133" y="126"/>
<use xlink:href="#p" x="133" y="154"/>
<use xlink:href="#p" x="133" y="175"/>
<use xlink:href="#p" x="140" y="14"/>
<use xlink:href="#p" x="140" y="21"/>
<use xlink:href="#p" x="140" y="28"/>
<use xlink:href="#p" x="140" y="35"/>
<use xlink:href="#p" x="140" y="42"/>
<use xlink:href="#p" x="140" y="49"/>
<use xlink:href="#p" x="140" y="56"/>
<use xlink:href="#p" x="140" y="84"/>
<use xlink:href="#p" x="140" y="98"/>
<use xlink:href="#p" x="140" y="112"/>
<use xlink:href="#p" x="140" y="119"/>
<use xlink:href="#p" x="140" y="126"/>
<use xlink:href="#p" x="140" y="140"/>
<use xlink:href="#p" x="140" y="154"/>
<use xlink:href="#p" x="140" y="161"/>
<use xlink:href="#p" x="147" y="14"/>
<use xlink:href="#p" x="147" y="56"/>
<use xlink:href="#p" x="147" y="70"/>
<use xlink:href="#p" x="147" y="77"/>
<use xlink:href="#p" x="147" y="84"/>
<use xlink:href="#p" x="147" y="98"/>
<use xlink:href="#p" x="147" y="105"/>
<use xlink:href="#p" x="147" y="112"/>
<use xlink:href="#p" x="147" y="119"/>
<use xlink:href="#p" x="147" y="126"/>
<use xlink:href="#p" x="147" y="154"/>
<use xlink:href="#p" x="147" y="175"/>
<use xlink:href="#p" x="147" y="182"/>
<use xlink:href="#p" x="154" y="14"/>
<use xlink:href="#p" x="154" y="28"/>
<use xlink:href="#p" x="154" y="35"/>
<use xlink:href="#p" x="154" y="42"/>
<use xlink:href="#p" x="154" y="56"/>
<use xlink:href="#p" x="154" y="98"/>
<use xlink:href="#p" x="154" y="112"/>
<use xlink:href="#p" x="154" y="119"/>
<use xlink:href="#p" x="154" y="126"/>
<use xlink:href="#p" x="154" y="133"/>
<use xlink:href="#p" x="154" y="140"/>
<use xlink:href="#p" x="154" y="147"/>
<use xlink:href="#p" x="154" y="154"/>
<use xlink:href="#p" x="154" y="161"/>
<use xlink:href="#p" x="154" y="175"/>
<use xlink:href="#p" x="154" y="182"/>
<use xlink:href="#p" x="161" y="14"/>
<use xlink:href="#p" x="161" y="28"/>
<use xlink:href="#p" x="161" y="35"/>
<use xlink:href="#p" x="161" y="42"/>
<use xlink:href="#p" x="161" y="56"/>
<use xlink:href="#p" x="161" y="70"/>
<use xlink:href="#p" x="161" y="84"/>
<use xlink:href="#p" x="161" y="105"/>
<use xlink:href="#p" x="161" y="112"/>
<use xlink:href="#p" x="161" y="133"/>
<use xlink:href="#p" x="161" y="147"/>
<use xlink:href="#p" x="161" y="161"/>
<use xlink:href="#p" x="161" y="168"/>
<use xlink:href="#p" x="161" y="175"/>
<use xlink:href="#p" x="161" y="182"/>
<use xlink:href="#p" x="168" y="14"/>
<use xlink:href="#p" x="168" y="28"/>
<use xlink:href="#p" x="168" y="35"/>
<use xlink:href="#p" x="168" y="42"/>
<use xlink:href="#p" x="168" y="56"/>
<use xlink:href="#p" x="168" y="98"/>
<use xlink:href="#p" x="168" y="126"/>
<use xlink:href="#p" x="168" y="140"/>
<use xlink:href="#p" x="168" y="154"/>
<use xlink:href="#p" x="168" y="161"/>
<use xlink:href="#p" x="168" y="168"/>
<use xlink:href="#p" x="168" y="182"/>
<use xlink:href="#p" x="175" y="14"/>
<use xlink:href="#p" x="175" y="56"/>
<use xlink:href="#p" x="175" y="70"/>
<use xlink:href="#p" x="175" y="77"/>
<use xlink:href="#p" x="175" y="84"/>
<use xlink:href="#p" x="175" y="98"/>
<use xlink:href="#p" x="175" y="105"/>
<use xlink:href="#p" x="175" y="112"/>
<use xlink:href="#p" x="175" y="140"/>
<use xlink:href="#p" x="175" y="147"/>
<use xlink:href="#p" x="175" y="154"/>
<use xlink:href="#p" x="175" y="161"/>
<use xlink:href="#p" x="175" y="182"/>
<use xlink:href="#p" x="182" y="14"/>
<use xlink:href="#p" x="182" y="21"/>
<use xlink:href="#p" x="182" y="28"/>
<use xlink:href="#p" x="182" y="35"/>
<use xlink:href="#p" x="182" y="42"/>
<use xlink:href="#p" x="182" y="49"/>
<use xlink:href="#p" x="182" y="56"/>
<use xlink:href="#p" x="182" y="84"/>
<use xlink:href="#p" x="182" y="91"/>
<use xlink:href="#p" x="182" y="98"/>
<use xlink:href="#p" x="182" y="112"/>
<use xlink:href="#p" x="182" y="119"/>
<use xlink:href="#p" x="182" y="140"/>
<use xlink:href="#p" x="182" y="147"/>
<use xlink:href="#p" x="182" y="154"/>
<use xlink:href="#p" x="182" y="161"/>
<use xlink:href="#p" x="182" y="168"/>
<use xlink:href="#p" x="182" y="175"/>
<use xlink:href="#p" x="182" y="182"/>
</g>
<g></g></svg>